HIERARCHY
ROOT pelvis
{
	OFFSET 0.000000 0.000000 0.657198
	CHANNELS 6 Xposition Yposition Zposition Xrotation Yrotation Zrotation
	JOINT spine
	{
		OFFSET 0.000000 0.000000 0.000000
		CHANNELS 6 Xposition Yposition Zposition Xrotation Yrotation Zrotation
		JOINT spine.001
		{
			OFFSET 0.000000 -0.011514 0.219692
			CHANNELS 3 Xrotation Yrotation Zrotation
			JOINT neck
			{
				OFFSET 0.000000 0.026810 0.218353
				CHANNELS 6 Xposition Yposition Zposition Xrotation Yrotation Zrotation
				JOINT face
				{
					OFFSET 0.000000 0.002570 0.147260
					CHANNELS 6 Xposition Yposition Zposition Xrotation Yrotation Zrotation
					End Site
					{
						OFFSET -0.000000 -0.024914 -0.006518
					}
				}
			}
			JOINT shoulder.L
			{
				OFFSET 0.000000 0.026810 0.218353
				CHANNELS 6 Xposition Yposition Zposition Yrotation Xrotation Zrotation
				JOINT upper_arm.L
				{
					OFFSET 0.140826 0.000000 0.000000
					CHANNELS 6 Xposition Yposition Zposition Xrotation Yrotation Zrotation
					JOINT forearm.L
					{
						OFFSET 0.217520 0.000097 0.000806
						CHANNELS 6 Xposition Yposition Zposition Xrotation Yrotation Zrotation
						End Site
						{
							OFFSET 0.163457 -0.002764 -0.001106
						}
					}
				}
			}
			JOINT shoulder.R
			{
				OFFSET 0.000000 0.026810 0.218353
				CHANNELS 6 Xposition Yposition Zposition Yrotation Xrotation Zrotation
				JOINT upper_arm.R
				{
					OFFSET -0.140826 0.000000 0.000000
					CHANNELS 6 Xposition Yposition Zposition Xrotation Yrotation Zrotation
					JOINT forearm.R
					{
						OFFSET -0.224204 0.000097 0.000806
						CHANNELS 6 Xposition Yposition Zposition Xrotation Yrotation Zrotation
						End Site
						{
							OFFSET -0.162731 -0.002751 -0.001106
						}
					}
				}
			}
		}
	}
	JOINT pelvis.L
	{
		OFFSET 0.000000 0.000000 0.000000
		CHANNELS 6 Xposition Yposition Zposition Yrotation Xrotation Zrotation
		End Site
		{
			OFFSET 0.091885 0.000000 0.000000
		}
	}
	JOINT pelvis.R
	{
		OFFSET 0.000000 0.000000 0.000000
		CHANNELS 6 Xposition Yposition Zposition Yrotation Xrotation Zrotation
		End Site
		{
			OFFSET -0.091885 0.000000 0.000000
		}
	}
	JOINT thigh.L
	{
		OFFSET 0.091885 0.000000 0.000000
		CHANNELS 6 Xposition Yposition Zposition Xrotation Yrotation Zrotation
		JOINT shin.L
		{
			OFFSET 0.016098 0.000000 -0.307172
			CHANNELS 6 Xposition Yposition Zposition Xrotation Yrotation Zrotation
			JOINT foot.L
			{
				OFFSET 0.014827 0.000000 -0.282918
				CHANNELS 3 Xrotation Yrotation Zrotation
				End Site
				{
					OFFSET 0.014923 -0.152161 -0.063895
				}
			}
			JOINT heel.02.L
			{
				OFFSET 0.014827 0.000000 -0.282918
				CHANNELS 3 Xrotation Yrotation Zrotation
				End Site
				{
					OFFSET -0.075118 0.028982 -0.070326
				}
			}
		}
	}
	JOINT thigh.R
	{
		OFFSET -0.091885 0.000000 0.000000
		CHANNELS 6 Xposition Yposition Zposition Xrotation Yrotation Zrotation
		JOINT shin.R
		{
			OFFSET -0.016176 0.000000 -0.308658
			CHANNELS 6 Xposition Yposition Zposition Xrotation Yrotation Zrotation
			JOINT foot.R
			{
				OFFSET -0.014947 0.000000 -0.285213
				CHANNELS 3 Xrotation Yrotation Zrotation
				End Site
				{
					OFFSET -0.014766 -0.150557 -0.063222
				}
			}
			JOINT heel.02.R
			{
				OFFSET -0.014947 0.000000 -0.285213
				CHANNELS 3 Xrotation Yrotation Zrotation
				End Site
				{
					OFFSET 0.070017 0.028982 -0.066267
				}
			}
		}
	}
}
MOTION
Frames: 5
Frame Time: 0.041667
-0.050161 -0.003058 0.643175 -0.000000 0.000000 -3.216771 0.000000 0.000000 0.000000 -3.330025 -1.028054 -0.083892 9.995789 0.242492 1.975339 -0.000000 0.026810 0.218353 6.037398 -2.427086 0.747680 -0.000000 0.002570 0.147260 -5.413858 -0.000001 -0.000003 -0.000000 0.026810 0.218354 -2.138633 0.004898 0.262472 0.140826 -0.000000 -0.000000 -38.873427 66.816162 56.092133 0.217520 0.000097 0.000806 22.218928 43.717374 -50.846616 -0.000000 0.026810 0.218354 -2.087608 0.004669 0.256220 -0.140826 -0.000000 -0.000000 -31.604327 -60.896082 -51.189980 -0.224204 0.000097 0.000806 3.747198 -25.560132 14.890668 0.000000 -0.000000 0.000000 -3.901920 -0.000000 0.000014 0.000000 -0.000000 0.000000 -3.901919 0.000000 0.000000 0.091672 -0.000000 0.006253 5.028577 3.184597 0.124011 0.016098 0.000000 -0.307172 1.712117 -8.093918 0.210098 -13.795061 1.253904 -4.720824 3.623223 -34.968974 -25.587410 -0.091672 0.000000 -0.006253 3.042026 -11.158669 0.138480 -0.016176 0.000000 -0.308658 4.692743 3.257926 -0.379036 -9.558235 0.630890 0.656411 2.406104 34.222110 24.799264 
-0.049883 -0.003448 0.643817 -0.000000 0.000000 -3.085155 -0.000000 -0.000000 -0.000000 -3.454586 -1.095029 -0.090555 9.995358 0.254625 2.074292 -0.000000 0.026810 0.218354 6.078490 -2.184708 0.562084 -0.000000 0.002570 0.147260 -5.203089 -0.000000 0.000006 -0.000000 0.026810 0.218353 -2.039387 0.004454 0.250225 0.140826 -0.000000 -0.000000 -41.206726 65.970905 59.946432 0.217520 0.000097 0.000806 22.486188 45.840890 -48.982305 -0.000000 0.026810 0.218353 -1.988360 0.004234 0.243994 -0.140826 -0.000000 -0.000000 -34.905173 -60.623079 -56.297698 -0.224204 0.000097 0.000806 4.660107 -27.632575 17.290918 0.000000 -0.000000 -0.000000 -3.390392 -0.000000 0.000010 0.000000 -0.000000 -0.000000 -3.390354 0.000000 0.000000 0.091724 -0.000000 0.005434 4.885581 3.249671 0.117702 0.016098 0.000000 -0.307172 2.155499 -8.063372 0.263946 -13.758865 1.398612 -4.972630 3.284608 -34.803922 -25.113562 -0.091724 0.000000 -0.005434 3.037116 -10.996037 0.133872 -0.016176 -0.000000 -0.308658 4.899366 3.049434 -0.386869 -10.918524 0.280961 1.559683 2.506349 34.049702 24.720340 
-0.049903 -0.003638 0.644495 -0.000000 0.000000 -2.975667 0.000000 -0.000000 -0.000000 -3.554739 -1.114578 -0.093153 9.995199 0.260669 2.123577 0.000000 0.026810 0.218353 6.208396 -2.060835 0.394590 -0.000000 0.002570 0.147260 -5.165262 -0.000000 -0.000002 0.000000 0.026810 0.218354 -1.951083 0.004078 0.239544 0.140826 -0.000000 0.000000 -41.633667 65.728632 60.736487 0.217520 0.000097 0.000806 22.369520 48.271259 -46.177147 0.000000 0.026810 0.218353 -1.900015 0.003867 0.233249 -0.140826 -0.000000 -0.000000 -37.497240 -60.022534 -60.624356 -0.224204 0.000097 0.000806 7.065370 -33.254217 21.861060 0.000000 0.000000 -0.000000 -2.964544 0.000001 0.000038 0.000000 0.000000 -0.000000 -2.964544 -0.000000 0.000000 0.091762 0.000000 0.004752 4.709730 3.264588 0.112847 0.016098 0.000000 -0.307172 2.599526 -7.978484 0.316420 -13.750369 1.499517 -5.149984 2.977911 -34.760178 -24.784506 -0.091762 0.000000 -0.004752 2.983212 -10.922915 0.129560 -0.016176 -0.000000 -0.308658 5.134604 2.919578 -0.399674 -11.874115 0.064246 2.113110 2.561685 33.941324 24.664274 
-0.050119 -0.003801 0.645062 -0.000000 0.000000 -2.939587 0.000000 0.000000 0.000000 -3.654993 -1.109251 -0.093686 9.995223 0.258936 2.109359 -0.000000 0.026810 0.218353 6.475904 -2.027228 0.245996 0.000000 0.002570 0.147260 -5.323957 0.000001 -0.000003 -0.000000 0.026810 0.218353 -1.873389 0.003759 0.229993 0.140826 -0.000000 -0.000000 -40.142938 66.435085 58.114521 0.217520 0.000097 0.000806 21.932723 50.991389 -42.707800 -0.000000 0.026810 0.218353 -1.822320 0.003557 0.223698 -0.140826 -0.000000 -0.000000 -39.313220 -59.486932 -63.755076 -0.224204 0.000097 0.000806 12.564509 -42.848417 29.818673 0.000000 0.000000 0.000000 -2.680950 -0.000000 -0.000002 0.000000 0.000000 0.000000 -2.680950 -0.000000 -0.000000 0.091784 -0.000000 0.004298 4.525922 3.255429 0.108799 0.016098 -0.000000 -0.307172 3.042094 -7.867804 0.367389 -13.831340 1.524505 -5.201251 2.694818 -34.857857 -24.612730 -0.091784 0.000000 -0.004298 2.890730 -10.931989 0.125774 -0.016176 -0.000000 -0.308658 5.401314 2.870908 -0.418179 -12.412642 -0.016801 2.341891 2.545811 33.929094 24.637826 
-0.050240 -0.004225 0.645301 -0.000000 0.000000 -3.032797 -0.000000 0.000000 0.000000 -3.788495 -1.135381 -0.097226 9.995424 0.254376 2.072273 0.000000 0.026810 0.218353 6.838947 -1.957828 0.125854 -0.000000 0.002570 0.147260 -5.566719 0.000000 -0.000003 0.000000 0.026810 0.218353 -1.806830 0.003497 0.221807 0.140826 -0.000000 -0.000000 -37.569401 67.610301 53.667897 0.217520 0.000097 0.000806 21.444520 53.775650 -39.370146 0.000000 0.026810 0.218354 -1.755856 0.003302 0.215551 -0.140826 -0.000000 0.000000 -40.797181 -59.668471 -65.652120 -0.224204 0.000097 0.000806 21.128205 -52.124223 40.192651 -0.000000 0.000000 0.000000 -2.518771 0.000001 0.000040 -0.000000 0.000000 0.000000 -2.518772 -0.000000 0.000000 0.091796 -0.000000 0.004038 4.394519 3.282428 0.104600 0.016098 -0.000000 -0.307172 3.457099 -7.798543 0.415458 -14.025172 1.466810 -5.117017 2.427235 -34.993043 -24.491742 -0.091796 0.000000 -0.004038 2.804582 -10.952486 0.122535 -0.016176 -0.000000 -0.308658 5.677015 2.849372 -0.438497 -12.751382 -0.074839 2.496130 2.455634 34.019752 24.644649 
